<svg xmlns="http://www.w3.org/2000/svg" width="5000" height="5000" viewBox="0 0 5000 5000"><path fill="#1c1b1b" d="M2259.274 0h480.117c23.933 17.972 90.175 13.374 123.708 18.22a2124 2124 0 0 1 203.383 38.951 2484.87 2484.87 0 0 1 1294.266 762.38c60.525 66.507 109.842 126.04 162.909 199.107 65.508 90.2 128.624 185.283 182.083 283.466a2542 2542 0 0 1 153.566 346.3c56.5 154.009 98.967 319.55 123.359 482.225 4.125 27.467 8.508 95.917 17.333 118.85v503.242c-11.608 29.266-17.458 125.633-24.458 164.65a3408 3408 0 0 1-72.067 305.95c-12.975 46.374-33.7 99.233-50.575 145.15a2467.7 2467.7 0 0 1-654.091 975.357c-44.342 40.192-109.084 101.092-157.992 131.625-22.25 21.234-54.125 39.084-78.058 59.284-54.959 46.391-119.2 78.183-178.384 117.141-65.008 42.792-127.366 71.125-196.083 105.5-80.9 40.467-158.625 74.708-245.008 102.642-29.325 9.966-71.233 29.958-100.842 36.041-139.158 38.3-326.541 87.709-470.524 96.567-10.759 1.233-29.45 2.392-38.225 7.35h-462.942c-13.567-7.183-126.517-18.583-148.55-21.8a2812 2812 0 0 1-112.883-19.358c-20.642-3.967-41.575-8.692-61.85-14.217-87.442-23.858-179.275-41.058-263.292-75.233a3808 3808 0 0 1-137.533-49.667c-42.025-16.808-80.425-37.8-121.35-56.008-75.833-33.75-142.05-71.109-213-113.934-37.341-21.783-132.683-77.95-159.908-105.074-53.733-39.65-108.275-80.692-161.433-121.15-17.434-13.267-37.25-36.134-56.759-51.775l-2.577-2.05c-51.672-50.717-93.374-82.925-144.337-139.325l-12.111-13.542c-15.109-14.342-27.582-33.317-42.159-47.575-61.288-59.958-109.236-129.708-160.188-198.317-22.33-30.066-57.597-69.3-73.663-102.091l-76.389-126.308c-27.77-36.909-52.464-93.167-73.147-136.009A2560.7 2560.7 0 0 1 38.248 2989.49c-8.47-42.083-15.093-83.741-21.508-126.074-4.398-29.017-7.917-83.842-16.74-110.2v-503.617c5.682-14.117 13.66-88.475 16.285-108.225 4.25-30.4 9.145-60.7 14.685-90.891 77.696-441.125 292.658-878.692 591.051-1211.617 29.139-32.506 94.645-110.384 126.85-132.935 47.894-42.559 99.787-96.684 149.554-135.597 77.55-60.635 166.6-132.18 251.166-181.646 14.517-12.192 158.917-97.456 176.758-104.311 47.134-18.111 191.075-102.106 230.609-107.2 15.116-5.876 27.491-10.159 42.966-15.014 9.934-6.026 52.184-20.367 64.517-24.465 9.433-4.79 27.892-10.617 39.15-14.302 135.6-44.374 277.567-77.867 418.041-102.925 32.434-5.785 117.984-5.78 137.642-20.471"/><path fill="#926f2d" d="M3066.482 57.171a2484.87 2484.87 0 0 1 1294.266 762.38c60.525 66.507 109.842 126.04 162.909 199.107 65.508 90.2 128.624 185.283 182.083 283.466a2542 2542 0 0 1 153.566 346.3c56.5 154.009 98.967 319.55 123.359 482.225 4.125 27.467 8.508 95.917 17.333 118.85v503.242c-11.608 29.266-17.458 125.633-24.458 164.65a3408 3408 0 0 1-72.067 305.95c-12.975 46.374-33.7 99.233-50.575 145.15a2467.7 2467.7 0 0 1-654.091 975.357c-44.342 40.192-109.084 101.092-157.992 131.625 8.783-13.65 87.758-77.575 103.883-90.158-6.158-.267-12.325-.567-18.475-.917-113.633-6.708-226.166-66.925-299.225-152.866-131.3-154.434-131.508-365.4-128.224-556.742.991-57.591 4.158-111.258 8.2-169.016 27.441 3.783 67.8 16.008 96.341 22.975 68.525 16.741 153.692 22.075 223.583 8.708 31.85 205.767 72.009 390.308 245.634 528.208l3.791-1.683 2.067-11.459c-12.4-70.341-12.308-154.8-11.908-226.233 1.875-332.333 48.416-665 104.558-992.083 5.775-33.608 10.242-71.133 19.15-103.625-26.883-50.25-72.975-166.35-84.625-220.3-13.583-26.483-36.4-121.65-58.017-144.408-2.133-16.058-54.483-78.6-64.958-97.967-6.483-11.983-8.717-18.45-13.425-31.708 17.583-13.833 73.358-105.275 66.083-125.975l-6.675-1.592c3.084-6.341 1.959-3.016 1.334-11l3.575-1.066 2.825 2.783 3.466-.892c12.792-29.8 6.934-67.383.184-97.858 15.183-16.383 47.791-47.441 39.525-71.425 32.508-63.733 65.766-123.85 58.091-198.483 15.175-1.15 14.775-.8 30.092 4-2.1-60.1-20.417-197.683-35.725-254.383-3.058-19.475-9.042-40.975-13.917-60.284-13.033-41.6-24.283-88.783-39.1-128.908-33.325-90.25-68.35-179.891-101.925-270.033-13.95-37.458-51.625-87.833-67.6-126.667-4.358-10.475-16.458-24.425-22.275-34.958-37.175-56.857-75.175-112.637-117.241-166.05-16.784-21.312-42.859-42.878-56.35-65.043-14.875 4.123-21.392 6.356-37.15 7.038 9.316-2.92 16.925-5.62 26.033-9.145l-2.292-3.465c-33.216-16.977-67.433-41.12-102.191-41.635-11.684.22-38.659 2.743-46.925 2.37-20.908-2.67-29.567 7.478-43.217-10.502l-31.125-30.005c-6.133-2.055-54.875-43.222-61.341-49.903-20.392-14.582-39.242-30.619-60.517-45.407-18.708-8.594-68.342-48.344-91.317-63.307-6.233-3.243-6.791-2.817-13.875-4.52-10.191-6.694-17.616-8.26-21.9-17.374 2.342-8.35 15.384-18.472 22.425-24.973a492 492 0 0 1-14.241-6.4c-3.725-7.528-2.867-3.406-.75-13.044-89.392-29.986-226.642-23.488-318.292-5.056-19.467 3.915-75.075 20.624-90.533 19.343-.025-22.722 6.341-46.152 8.666-68.74 5.575-54.242 12.042-107.616 22.859-161.103 2.933-14.537 7.3-30.943 8.633-45.366"/><path fill="#f98564" d="m4305.565 2510.282 3.917-1.075c17.916 15.2 57.7 98.334 74.858 123.125 16.633 24.05 50.875 70.7 58.017 99.725 2.5 10.184-3.342 44.359-4.009 55.692-25.2 153.766-53.116 307.775-73.583 462.291a13441 13441 0 0 0-61.383 602.492c-5.4 67.558-11.917 135.008-13.35 202.766-.15 6.717-.725 12.467-4.642 17.784-6.542-7.709-4.458-9.275-7-20.559-12.4-70.341-12.308-154.8-11.908-226.233 1.875-332.333 48.416-665 104.558-992.083 5.775-33.608 10.242-71.133 19.15-103.625-26.883-50.25-72.975-166.35-84.625-220.3"/><path fill="#dcb46d" d="M3557.849 435.073c12.316-21.576 26.025-21.34 22.825-48.429l8.516-3.094c22.059 13.512 42.434 27.456 63.8 41.989 35.809 20.542 149.15 114.13 156.717 152.344-4.367 1.34-7.3 2.237-11.775 3.275-11.684.22-38.659 2.743-46.925 2.37-20.908-2.67-29.567 7.478-43.217-10.502l-31.125-30.005c-6.133-2.055-54.875-43.222-61.341-49.903-20.392-14.582-39.242-30.619-60.517-45.407z"/><path fill="#eed56f" d="M3557.849 435.073c12.316-21.576 26.025-21.34 22.825-48.429l8.516-3.094c22.059 13.512 42.434 27.456 63.8 41.989-10.283 8.322-10.083 6.902-22.416 1.885-13.634 14.89-17.442 25.02-35.667 33.978 4.367 15.601 18.25 13.518 20.417 31.716-20.392-14.582-39.242-30.619-60.517-45.407z"/><path fill="#eed56f" d="M3676.665 543.021c16.05-1.12 24.9 9.591 32.917 22.621-.283 5 .492 3.468-1.792 7.384z"/><path fill="#dcb46d" d="M3476.74 330.785c49.334 15.47 69.842 25.134 112.45 52.765l-8.516 3.094c3.2 27.09-10.509 26.853-22.825 48.43l-3.042 12.637c-18.708-8.594-68.342-48.344-91.317-63.307-6.233-3.243-6.791-2.817-13.875-4.52-10.191-6.694-17.616-8.26-21.9-17.374 2.342-8.35 15.384-18.472 22.425-24.973 6.167 3.275 4.959 1.267 8.117 6.088 12.875-4.536 12.858-3.107 18.483-12.84"/><path fill="#eed56f" d="M3450.14 337.537c6.167 3.275 4.959 1.267 8.117 6.088 11.25 8.577 31.625 20.075 24.4 36.312-7.817 5.117-9.908 4.44-19.167 4.467-6.233-3.243-6.791-2.817-13.875-4.52-10.191-6.694-17.616-8.26-21.9-17.374 2.342-8.35 15.384-18.472 22.425-24.973"/><path fill="#eed56f" d="M3435.149 318.093c14.891 3.936 26.991 7.793 41.591 12.692-5.625 9.733-5.608 8.304-18.483 12.84-3.158-4.821-1.95-2.813-8.117-6.088a492 492 0 0 1-14.241-6.4c-3.725-7.528-2.867-3.406-.75-13.044"/><defs><linearGradient id="a" x1="394.709" x2="439.76" y1="402.818" y2="168.844" gradientUnits="userSpaceOnUse"><stop offset="0" stop-color="#fd8767"/><stop offset="1" stop-color="#ffad92"/></linearGradient></defs><path fill="url(#a)" d="M382.677 172.37c5.228-2.131 12.128-3.564 17.715-4.541 27.53-4.815 64.058.573 82.918 23.059 2.79-1.273 6.075-2.001 9.061-2.716 9.926 5.13 13.849 17.546 17.079 27.708a189 189 0 0 1 1.815 6.078c-8.126-1.846-11.921-.65-20.098 1.239-.503 1.433-1.974 4.088-2.736 5.26-4.234 6.509-3.901 11.598-.493 18.38 3.735 8.475 7.166 13.96 12.362 21.507.565 1.591.833 2.367 1.611 3.805 1.257 2.324 7.539 9.829 7.795 11.756-2.132 1.918-3.608 2.667-6.232 3.853-9.734-3.881-12.141-6.856-23.064-1.962-2.887 1.293-5.645 2.584-8.488 4.2-5.641 3.813-12.246 11.69-16.39 2.099l-.505-.252c-.726 7.015 1.481 11.139 8.702 12.897 2.73.664 11.973.289 13.508 2.803 3.643 5.96 3.677 9.69 8.979 15.337q2.425-.494 4.842-1.038c-.054-3.386-.073-5.383.341-8.735 1.492-1.465 4.6-3.617 6.508-5.344 6.212-5.625 8.01-10.621 11.78-17.438 1.533 7.239 2.762 15.683 2.291 23.007-.858 13.322-4.859 27.026-9.04 39.67-1.394 4.218-2.472 8.729-3.83 13.003-1.864 5.869-3.735 11.651-5.103 17.67-1.906 8.386.019 17.906-2.87 26.025-1.322 3.713-4.413 7.54-8.083 9.055-4.209 1.736-10.367-.309-14.772-1.126-18.776-3.482-38.132-10.263-55.914-17.113-11.241-4.33-25.881-10.858-32.298-21.423-.54-.888-1.381-2.63-1.469-3.658-.45-5.252-.337-11.075-.387-16.346q-.453-29.728.014-59.456c.018-2.006.613-17.43.089-19.504-.105-.416-6.82-3.058-8.293-3.732-13.371-6.116-26.102-14.926-35.704-26.132-3.216-3.793-6.51-10.34-8.453-14.843-2.474-5.325-4.595-14.897-1.37-20.187 9.99-16.389 24.951-28.801 42.365-36.679 5.307-2.401 10.116-4.698 15.817-6.186" transform="scale(8.33333)"/><path fill="#211919" d="M2715.54 1961.85c-20.616-44.376-38.291-124.142-11.416-168.226 83.25-136.575 207.925-240.008 353.041-305.658 44.225-20.008 84.3-39.15 131.809-51.55-41.65 33.325-195.542 186.85-201.334 237.908-.575 5.134.009 6.267 2.734 10.309l5.825 2.375c115.15-79.909 301.558-159.892 442.075-132.017 120.541 23.908 241.358 80.533 346.966 143.175 28.183 16.717 70.533 46.267 95.592 59.767.583 18.216 1 32.575-.017 50.725-5.792 5.508-13.842 13.666-19.817 18.508l-9.5 24.617c11.992 63.333 39.067 129.55 51.65 196.841a2540 2540 0 0 1-71.091-20.383c-70.45 26.758-158 105.408-232.083 132.308 16.225-14.233 55.925-45.108 63.525-62.283l-1.017-5.575c-15.358-10.142-108.042 8.55-140.117 9.566a558.5 558.5 0 0 1-105.166-5.641c-118.959-18.642-193.634-70.55-294.292-119.108-76.833-37.067-216.7-86.1-299.241-66.325-35.3 8.45-81.834 24.116-108.125 50.666"/><path fill="#f98564" d="M2715.54 1961.85c-20.616-44.376-38.291-124.142-11.416-168.226 83.25-136.575 207.925-240.008 353.041-305.658 44.225-20.008 84.3-39.15 131.809-51.55-41.65 33.325-195.542 186.85-201.334 237.908-.575 5.134.009 6.267 2.734 10.309l5.825 2.375c-10.3 9.583-21.375 18.166-32.35 26.991 102.383-39.608 239.375-76.683 348.633-77.233 71.942-.367 175.517 58.608 228.433 104.425-93.233-9.725-212.933 13.375-299.083 48.808-90.5 37.234-158.9 93.942-266.85 62.2l-8.592-2.475a619.8 619.8 0 0 0 142.917 83.242c18.717 7.967 39.542 14.8 57.575 23.2 23.108 10.775 47.475 28.475 70.15 40.158 58.808 30.292 147.767 52.959 213.517 55.117l2.883-2.133c17.342 6.566 84.4 9.958 100.1 5.116l1.367-5.175c7.8 11.034 81.408 26.534 106.316 36.883-12.633-38.366-24.075-75.224-31.925-114.916 44.242 21.983 59.467 34.317 90.042 71.6 17.6-49.892 80.65-139.183 91.433-191.317 17.6-6.991 33.483-15.608 50.233-24.333l-9.5 24.617c11.992 63.333 39.067 129.55 51.65 196.841a2540 2540 0 0 1-71.091-20.383c-70.45 26.758-158 105.408-232.083 132.308 16.225-14.233 55.925-45.108 63.525-62.283l-1.017-5.575c-15.358-10.142-108.042 8.55-140.117 9.566a558.5 558.5 0 0 1-105.166-5.641c-118.959-18.642-193.634-70.55-294.292-119.108-76.833-37.067-216.7-86.1-299.241-66.325-35.3 8.45-81.834 24.116-108.125 50.666"/><path fill="#fefefe" d="M3453.432 2049.308c-26.925-10.825-174.3-71.867-174.692-100.225l7.325-4.109c2.267.825 7.192 2.717 9.65 2.042 49.525-13.675 101.692-15.392 152.784-13.858 13.241.391 24.3 2.191 37.291 4.866 44.167 9.109 80.284 49.067 69.134 95.575-2.009 8.367-2.209 7.084-.025 15.65l-1.367 5.175c-15.7 4.842-82.758 1.45-100.1-5.116"/><path fill="#f98564" d="M3395.74 1792.79a328 328 0 0 1 67.625 1.184c20.55 2.684 110.009 28.117 106.075 52.784-6.875.975-34.3-9.025-49.15-10.542-39.458-4.033-77.375-4.308-116.908-4.575-75.6 3.108-107.158 6.058-181.8 20.133 38.967-28.708 126.6-53.883 174.158-58.983"/><path fill="#f98564" d="M3791.89 2432.024c3.008-10.367 2.7-18.175 8.95-26.283l3.333.566c1.284 6.209 3.909 21.184 8.5 23.492 30.092 15.167 85.934-14.058 120.009-13.167-47.009 31.775-102.05 97.417-136.584 17.492z"/><defs><linearGradient id="b" x1="461.856" x2="477.015" y1="355.606" y2="321.349" gradientUnits="userSpaceOnUse"><stop offset="0" stop-color="#2e1613"/><stop offset="1" stop-color="#171b1c"/></linearGradient></defs><path fill="url(#b)" d="M473.252 322.971c6.167-.46 8.584 1.027 13.22 4.708 3.319.217 8.432-.665 9.888 2.92 2.812 6.923 1.566 20.594-.499 27.365-2.105-4.583-3.779-8.892-7.256-12.595-2.368-.435-4.945-.894-7.228-1.622-3.438-1.096-6.693-2.554-10.205-3.416-8.967-.806-20.561 2.55-29.585 3.587-3.295.379-5.879.202-9.149-.031 11.274-6.8 27.757-18.799 40.814-20.916" transform="scale(8.33333)"/><path fill="#211919" d="M3744.932 2968.765c132.316-6.733 236.791-5.966 359.9 50.492-6.959 10.625-13.1 20.55-21.217 30.358-22.425 39.65-36.042 49.275-32.767 96.617-22.966-20.275-29.358-23.042-58.2-33.708-131.116-22.267-170.8-26.8-247.716-143.759"/><path fill="#4a140c" d="M3992.648 3112.524c66.15 2.425 56.809-44.55 90.967-62.909-22.425 39.65-36.042 49.275-32.767 96.617-22.966-20.275-29.358-23.042-58.2-33.708"/><path fill="#926f2d" d="M0 2249.6c5.682-14.118 13.66-88.476 16.285-108.226 4.25-30.4 9.145-60.7 14.685-90.891 77.696-441.125 292.658-878.692 591.051-1211.617 29.139-32.506 94.645-110.384 126.85-132.935-18.64 46.468-9.15 129.885-8.115 177.735 7.32 338.317 76.511 697.008 211.877 1008.475 4.15 9.533 7.417 22.1 15.542 26.183l1.108 4.425c8.708 34.042 26.625 78.067 39.192 111.45a2382 2382 0 0 1 46.291 134.667c70.784 229.458 50.325 476.366-75.791 680.958-82.492 133.833-184.643 228.541-304.855 325.158-10.364 14.858-15.644 18.9-30.084 29.833l1.318 2.767 9.64 2.033c-2.716 12.075-27.256 30.392-17.344 47.642 14.068-.442 28.304-1.167 42.335-.283 212.781-12.834 426.848-95.717 600.856-219.25 33.542-23.817 60.183-48.059 96.925-67.834-9.875 23.859-56.025 57.167-77.433 74.492-105.442 85.325-223.617 153.233-339.817 222.583-27.708 16.534-63.275 33.367-92.5 48.634-181.124 94.641-362.968 193.133-494.455 354.558-13.143 16.133-44.389 54.042-50.794 72.417-27.77-36.909-52.464-93.167-73.147-136.009A2560.7 2560.7 0 0 1 38.248 2989.49c-8.47-42.083-15.093-83.741-21.508-126.074-4.398-29.017-7.917-83.842-16.74-110.2z"/><defs><linearGradient id="c" x1="75.683" x2="66.419" y1="388.863" y2="386.858" gradientUnits="userSpaceOnUse"><stop offset="0" stop-color="#4d3d20"/><stop offset="1" stop-color="#745d31"/></linearGradient></defs><path fill="url(#c)" d="M80.894 380.998c-1.243 1.783-1.877 2.268-3.61 3.58l.158.332 1.157.244c-.326 1.449-3.27 3.647-2.081 5.717 1.688-.053 3.397-.14 5.08-.034-2.189.396-5.732.411-7.99.321-3.16.454-6.786.297-10.011.262 5.178-2.002 12.613-7.174 17.297-10.422" transform="scale(8.33333)"/><path fill="#534326" d="M613.402 3259.649c-8.887-.692-14.566-1.292-23.336-2.8 9.475-6.325 17.515-8.767 28.102-12.792 2.624 4.1 2.142 6.55 2.832 12.025 6.766 3.408 7.788 1.833 16.65 1.175 14.068-.442 28.304-1.167 42.335-.283-18.24 3.3-47.771 3.425-66.583 2.675"/><path fill="#d29a41" d="M2458.932 291.998c78.967-10.273 154.659-11.372 234.192-6.108 65.65 4.346 121.383 31.6 182.208 50.218 16.017-3.344 59.017 6.203 78.767 5.247 25.041-1.212 47.5-6.293 72.225-8.975 15.458 1.28 71.066-15.428 90.533-19.343 91.65-18.432 228.9-24.93 318.292 5.056-2.117 9.638-2.975 5.516.75 13.044a492 492 0 0 0 14.241 6.4c-7.041 6.501-20.083 16.624-22.425 24.973 4.284 9.115 11.709 10.68 21.9 17.374 7.084 1.703 7.642 1.277 13.875 4.52 22.975 14.963 72.609 54.713 91.317 63.307 21.275 14.788 40.125 30.825 60.517 45.407 6.466 6.681 55.208 47.848 61.341 49.903l31.125 30.005c13.65 17.98 22.309 7.832 43.217 10.501-54.625 8.923-101.708 13.138-157.083 24.924a3135 3135 0 0 0-234.675 63.489c-299.442 87.549-643.883 269.718-895.5 453.76a4575 4575 0 0 0-184.358 140.391c-28.6 22.975-63.384 57.692-94.325 76.483-19.842 12.059-69.325 8.042-91.867 18.992-59.391 18.633-102.558 44.9-157.725 69.042 82.009-125.534 162.9-230.958 281.433-325.158 32.542-25.859 65.542-46.392 96.85-70.467-72.25-2.642-151.975-5.333-224.875 3.775-180.391 22.55-363.891 106.842-500.316 226.675-15.683 13.775-65.058 69.05-78.55 68.666-.008-.55 77.3-140.65 86.875-155.416 42.2-65.133 97.708-140.617 150.95-196.608q6.9-7.314 14.125-14.317l-7.708-3.142c-491.434 325.508-609.042 850.108-496.475 1392.183 9.425 45.383 23.558 108.125 26.191 153.483 62.025-59.158 112.609-116.058 170.267-178.966 22.942-25.034 60.408-71.592 85.942-91.942-38.042 98.342-111.792 212.883-167.667 302.25-12.65 20.233-67.75 94.075-74.792 109.358-13.258 49.584-50.883 59.117-65.016 95.784l2.383 1.375c15.133-11.25 64.808-48.434 80.567-51.834 34.15-18.783 148.783-115.875 179.258-144.566 46.783-45.942 93.333-92.209 138.967-139.275 13.066-13.467 39.883-54.117 54.3-57.267 1.233 6.45-.342 9.725-3.059 15.892-129.95 295.108-442.316 497.183-726.7 617.583 53.876-59.184 225.184-312.808 238.026-379.317 4.65-24.108-.059-51.625-2.2-76.025-7.659-87.433-23.242-172.425-35.859-259.108-10.758-73.892-20.983-148.567-24.416-223.208-2.009-43.7-.925-87.825-.842-131.575.067-36.55-1.042-73.583 1.475-110.05 18.825-272.975 121.55-549.208 271.458-776.966 205.033-311.53 549.742-596.352 908.208-707.903 46.35-14.425 97.067-22.756 144.658-32.524"/><path fill="#dcb46d" d="M2458.932 291.998c78.967-10.273 154.659-11.372 234.192-6.108 65.65 4.346 121.383 31.6 182.208 50.218 16.017-3.344 59.017 6.203 78.767 5.247 25.041-1.212 47.5-6.293 72.225-8.975 15.458 1.28 71.066-15.428 90.533-19.343 91.65-18.432 228.9-24.93 318.292 5.056-2.117 9.638-2.975 5.516.75 13.044a492 492 0 0 0 14.241 6.4c-7.041 6.501-20.083 16.624-22.425 24.973 4.284 9.115 11.709 10.68 21.9 17.374 7.084 1.703 7.642 1.277 13.875 4.52 22.975 14.963 72.609 54.713 91.317 63.307 21.275 14.788 40.125 30.825 60.517 45.407 6.466 6.681 55.208 47.848 61.341 49.903l31.125 30.005c13.65 17.98 22.309 7.832 43.217 10.501-54.625 8.923-101.708 13.138-157.083 24.924a3135 3135 0 0 0-234.675 63.489c-7.267-.585-17.767-1.753-23.4-6.31-20.692-16.722-44.717-34.852-65.225-51.104-17.534-13.892-75.975-46.253-88.267-58.705-37.333-19.912-86.1-41.221-126.125-53.991l-2.133-.415c-31.309-6.406-63.292-20.128-94.492-27.729C2270.032 305.668 1516.141 818.115 1261.35 1448.1c-15.308 37.85-33.458 78.05-45.091 116.475l-6.108-7.7c9.225-54.25 42.333-126.8 59.374-180.541 7.375-23.25 16.992-53.6 25.909-75.709 9.216-22.866 27.241-49.466 38.866-72.308a1822.65 1822.65 0 0 1 517.192-629.445c60.383-46.625 137.892-88.415 203.2-127.783 56.633-34.14 119.208-65.482 179.425-92.524 43.083-19.35 96.575-27.972 138.666-50.678 7.184-3.9 22.75-14.959 30.092-16.534 35.008-7.514 26.8 2.209 56.058-19.354"/><path fill="#d29a41" d="M3337.599 354.836c11.091 4.516 28.666 4.822 42.375 7.557a686 686 0 0 1 69.641 17.491c7.084 1.703 7.642 1.277 13.875 4.52 22.975 14.963 72.609 54.713 91.317 63.307 21.275 14.788 40.125 30.825 60.517 45.407 6.466 6.681 55.208 47.848 61.341 49.903l31.125 30.005c13.65 17.98 22.309 7.832 43.217 10.501-54.625 8.923-101.708 13.138-157.083 24.924-6.3-29.449-104.892-125.313-132.159-145.437-21.416-18.554-36.033-28.34-60.3-42.66-7.95-6.912-8-6.87-17.525-11.487-19.058-13.904-48.033-30.848-70.008-39.012 9.208-6.797 13.6-9.593 23.667-15.02"/><path fill="#eed56f" d="m3056.232 501.83.617-6.02c3.983-2.787 4.45-4.539 10.325-2.4 31.533 11.471 89.6 35.291 114.925 54.565.133 2.415.441 5.526.258 7.846-37.333-19.912-86.1-41.221-126.125-53.991"/><path fill="#eed56f" d="M3383.94 408.867c-14.883 3.253-91.025-42.107-90.2-57.245 5.467-3.091 2.467-2.177 9.567-1.104 3.492 3.836 6.133 6.542 9.892 10.112 2.991-3.568 5.725-6.544 8.908-9.948 7.65-.725 8.608.645 15.492 4.154-10.067 5.426-14.459 8.222-23.667 15.019 21.975 8.164 50.95 25.108 70.008 39.012"/><path fill="#eed56f" d="M3401.465 420.355c24.267 14.318 38.884 24.105 60.3 42.659l-4.316 1.592c-10.217-4.796-51.259-31.501-57.684-38.938z"/><path fill="#4a140c" d="M1174.433 2799.39c8.25-16.258 11.792-18.224 23.942-30.991 35.216-37.008 66.908-78.058 99.35-117.417-13.259 49.584-50.884 59.117-65.017 95.784l2.383 1.375c15.133-11.25 64.808-48.434 80.567-51.834-36.475 32.084-98.275 67.525-141.225 103.084"/><path fill="#dcb46d" d="m1210.15 1556.874 6.108 7.7c-14.5 35.817-32.283 152.134-39.067 164.517.225-12.925 4.809-40.383 6.859-54.425 5.758-39.492 13.191-79.975 26.1-117.792"/><path fill="#711912" d="M1754.258 964.616c13.283-10.275 19.75-14.9 34.275-23.366-7.309 7.575-18.8 20.3-26.567 26.508z"/><defs><linearGradient id="d" x1="340.008" x2="469.823" y1="269.807" y2="76.984" gradientUnits="userSpaceOnUse"><stop offset="0" stop-color="#cf9035"/><stop offset="1" stop-color="#ddb66f"/></linearGradient></defs><path fill="url(#d)" d="M469.624 75.404c1.619 2.66 4.748 5.248 6.762 7.805 5.048 6.41 9.608 13.103 14.069 19.926.698 1.264 2.15 2.938 2.673 4.195 1.917 4.66 6.438 10.705 8.112 15.2 4.029 10.817 8.232 21.574 12.231 32.404 1.778 4.815 3.128 10.477 4.692 15.469.585 2.317 1.303 4.897 1.67 7.234 1.837 6.804 4.035 23.314 4.287 30.526-1.838-.576-1.79-.618-3.611-.48-.455-4.594-.438-7.49-1.699-12.018-.696-2.733-2.924-7.528-4.024-10.453-1.588-2.43-3.498-5.515-5.515-7.576-22.466-22.956-54.574-31.382-85.58-32.774-3.383-.127-6.785-.087-10.172-.079-3.801.427-7.541.473-11.445.93-50.828 5.956-98.623 30.175-138.413 61.6-2.884 2.278-5.499 4.651-8.42 6.854-3.461-4.95-6.279-8.93-11.678-12.02a384.1 384.1 0 0 1 165.63-111.543c17.729-5.906 37.643-9.963 55.973-14.356 1.891-.081 2.673-.35 4.458-.844" transform="scale(8.33333)"/><path fill="#d29a41" d="M4027.498 851.916c35.475 49.5 52.825 98.275 82.759 147.867 47.791 79.2 78.916 153.458 106.108 241.533 8.067 26.133 11.117 63.367 23.3 87.133 16.775 32.75 48.75 60.409 66.2 93.617 2.708 5.1 4.267 5.233 9.042 5.917l3.116-7.959c4.875 19.309 10.859 40.809 13.917 60.284-65.142-73.975-122.492-125.892-204.558-180.775-6.725-61.3-16.25-113.967-29.959-174.067-8.141-35.708-14.908-87.233-25.325-120.841-17.216-55.534-33.808-92.975-44.6-152.709"/><path fill="#dcb46d" d="M3445.99 1206.525c-8.891-.967-16.741-.692-23.85-5.642 13.15-15 86.109-11.3 104.184-4.125 4.558 5.517 3.358 3.108 4.433 10.425-28.192-1.058-56.542-.725-84.767-.658"/><path fill="#926f2d" d="M4289.882 1543.433c34.15 18.041 38.691 51.766 33.533 87.108-5.8-22.775-24.367-62.733-33.533-87.108"/><path fill="#d29a41" d="M3890.123 714.47c5.492-6.588 2.142-4.981 9.975-5.754 4.267 6.31 15.375 50.639 12.775 58.804-.425 1.33-2.158 3.023-3.3 4.207 1.609 15.354 19.684 73.481 24.859 92.59l56.225 208.05c15.233 54.974 31.758 136.033 47.941 185.74-10.025-6.59-80.041-41.374-79.033-39.816-39.692-22.441-82.767-33.416-125.442-46.075-171.391-50.816-353.7-44.275-529.566-25.825-35.817 3.759-87.283 17.809-118.208 20.184l-4.875.333c-12.017-1.183-35.392 2.6-40.609-.325l8.917-9.808c166.717-57.734 368.867-82.734 543.592-55.709 60.824 9.4 139.224 32.692 199.041 50.034-14.433-41.334-25.492-89.709-36.308-132.459-6.109-24.158-16.934-63.65-20.275-87.325-10.675-27.95-13.017-62.583-27.675-92.608l-5.525-6.535c-5.634 2.968-3.317 2.602-9.375 2.327-10.225-12.041-26.125-54.932-21.159-69.086l4.359.675 3.5 7.917c3.308-18.121 90.616-61.702 110.166-59.536"/><path fill="#37150e" d="M3835.832 931.316c.391-7.533.475-12.675.316-20.216l5.659-5.634c15.158 33.8 119.408 287.742 117.758 312.825-39.692-22.441-82.767-33.416-125.442-46.075-171.391-50.816-353.7-44.275-529.566-25.825-35.817 3.759-87.283 17.809-118.208 20.184l-4.875.333c-12.017-1.183-35.392 2.6-40.609-.325l8.917-9.808c166.717-57.734 368.867-82.734 543.592-55.709 60.824 9.4 139.224 32.692 199.041 50.034-14.433-41.334-25.492-89.709-36.308-132.459-6.109-24.158-16.934-63.65-20.275-87.325"/><path fill="#eed56f" d="M3802.632 832.173c-5.634 2.968-3.317 2.602-9.375 2.327-10.225-12.041-26.125-54.932-21.159-69.086l4.359.675 3.5 7.917c8.45 19.533 14.566 38.835 22.675 58.167"/><path fill="#4a140c" d="M3808.157 838.708c8.041 5.192 31.575 57.333 33.65 66.758l-5.659 5.634c.159 7.541.075 12.683-.316 20.216-10.675-27.95-13.017-62.583-27.675-92.608"/><path fill="#eed56f" d="M3890.123 714.47c5.492-6.588 2.142-4.981 9.975-5.754 4.267 6.31 15.375 50.639 12.775 58.804-.425 1.33-2.158 3.023-3.3 4.207-6.275-19.391-12.308-38.13-19.45-57.257"/><path fill="#37150e" d="M3730.515 771.133c-49.491 28.173-145.8 55.845-201.266 76.733-345.592 130.184-682.083 287.667-991.283 490.625-52.8 34.658-108.125 76.358-159.617 113.958l-6.875-2.625c41.133-37.283 90.592-72.991 134.35-107.4 324.975-255.574 809-522.194 1224.691-571.291"/><path fill="#4a140c" d="m3149.782 1156.775-8.917 9.808c5.217 2.925 28.592-.858 40.609.325-59.267 11.108-119.934 27.842-177.742 44.9 16.167-16.217 121.758-47.875 146.05-55.033"/><path fill="#eed56f" d="M3461.657 903.266c14.833 6.334 37.05 54.5 36.758 69.067-9.075-4.533-31.816-56.567-36.758-69.067"/><path fill="#711912" d="m2371.474 1449.824 6.875 2.625c-10.392 8.809-42.783 34.775-54.942 38.434 13.325-15.1 32.017-28.817 48.067-41.059"/><path fill="#f98564" d="M3534.665 3838.873c-10.591 112.525 7.25 326 73.067 418 58.967 82.434 170.641 152.95 269.325 171.234a2125 2125 0 0 1-350.767 290.6c-26.95 18-304.4 180.041-299.633 174.558 6.492 3.2 8.175 2.383 15.783 2.816-139.158 38.3-326.541 87.709-470.524 96.567-9.392-.617-18.042-.767-27.45-.917 13.775-1.75 21.883-3.658 35.108-6.925 36.783-55.191 84.192-114.216 123.192-169.775a14384 14384 0 0 0 366.508-536.866c62.616-96.325 122.125-198.025 182.091-296.158 25.8-42.209 54.75-104.892 83.3-143.134"/><path fill="#ee0b01" d="M1270.25 3168.424c137.683-94.017 220.408-152.892 334.05-280.058a1379.6 1379.6 0 0 0 133.05-174.075c9.166-13.909 46.3-81.267 53.533-86.017l2.291 2.075c-2.141 20.6-13.1 61.892-18.625 83.558a980.8 980.8 0 0 1-329.35 510.842 1361.7 1361.7 0 0 1-243.066 156.25c-42.3 21.75-95.525 49.833-138.208 68.283-216.417 93.3-445.339 176.583-616.556 345.383-15.986 15.767-44.262 39.208-50.307 61.783-.555 2.075 2.096 9.242 2.094 12.434l-76.389-126.308c6.405-18.375 37.651-56.284 50.794-72.417 131.487-161.425 313.331-259.917 494.455-354.558 29.225-15.267 64.792-32.1 92.5-48.634 116.2-69.35 234.375-137.258 339.817-222.583 21.408-17.325 67.558-50.633 77.433-74.492 18.783-13 40.425-31.191 57.475-42.291-37.417 69.5-112.175 176.783-169.767 231.508 1.25 5.5.967 5.217 4.775 9.317"/><path fill="#711912" d="M1265.474 3159.107c1.25 5.5.967 5.217 4.775 9.317-15.458 11.016-28.866 20.85-45.35 30.233 10.759-12.142 27.825-29.775 40.575-39.55"/><path fill="#f98564" d="M2196.8 3398.224c34.282 51.291 92.59 160.416 122.416 218.125 169.475 328 328.325 690.724 257.95 1067.774-13.7 73.442-72.842 260.317-112.725 315.875h-78.8l-6.4-3.592c-3.7-13.508.45-71.575.841-90.758.8-32.667.775-65.342-.066-98.008a4302 4302 0 0 0-20.284-312.442c-36.825-359.583-105.5-739.125-162.933-1096.974"/><path fill="#ee0b01" d="M1149.591 388.688c-1.658 9.924-49.125 96.825-56.858 113.371a1990 1990 0 0 0-89.05 225.836c-90.525 279.763-111.183 609.254-78.967 900.846a3504 3504 0 0 0 28.325 199.925c4.167 25.75 12.275 65.308 15.134 89.658-8.125-4.083-11.392-16.65-15.542-26.183-135.366-311.467-204.557-670.158-211.877-1008.475-1.035-47.85-10.525-131.267 8.115-177.735 47.894-42.559 99.787-96.684 149.554-135.597 77.55-60.635 166.6-132.18 251.166-181.646"/><path fill="#ee0b01" d="M696.119 4198.307c85.522-371.075 354.089-549.508 665.414-719.908 24.283-13.292 47.391-33.209 72.733-44.217l2.358 2.767c-5.883 10.625-45.683 48.183-57.858 60.758L1270.1 3612.115c-162.224 171.625-319.6 378.867-398.05 603.075-15.25 43.592-34.733 108.208-40.435 154.542-51.672-50.717-93.374-82.925-144.337-139.325 4.23-9.85 6.394-21.534 8.842-32.1"/><path fill="#ee0b01" d="M1052.383 4544.707c11.033-20.909 18.033-45.35 27.983-67.234 103.925-228.708 348.2-328.375 511.467-504.608 30.441-32.867 59.775-68.075 87.15-103.525 13.191-17.092 33.691-66.283 46.991-71.975l1.95 2.892c-5.066 25.308-15.15 49.358-21.983 73.891-32.358 116.225-82.583 207.55-154.825 303.3-105.767 140.184-249.158 250.2-321.7 413.542-6.083 13.9-21.05 44.233-17.125 58.791-37.341-21.783-132.683-77.95-159.908-105.074"/><path fill="#fe251c" d="M2863.099 18.22a2124 2124 0 0 1 203.383 38.951c-1.333 14.423-5.7 30.829-8.633 45.366-10.817 53.487-17.284 106.861-22.859 161.104-2.325 22.587-8.691 46.017-8.666 68.739-24.725 2.682-47.184 7.763-72.225 8.975-19.75.956-62.75-8.591-78.767-5.247.492-17.72-2.083-47.3-3.041-66.18a5562 5562 0 0 1-6.292-144.831c-.558-25.139-.6-69.269-.442-96.326-2.9-3.336-5.391-6.214-7.491-8.633z"/><path fill="#ee0b01" d="M2695.957 0h36.667l.158 6.3c-16.708 5.45-32.483-3.718-37.341 3.992-1.492 2.377-6.834 8.877-9.6 9.6-29.342 7.674-63.109 13.211-92.259 20.784-52.875 13.734-103.766 31.046-155.675 46.01-189.35 54.583-359.35 133.826-524.816 240.083-42.417 27.234-123.483 102.12-159.425 118.98l-4.367-.135c1.559-24.56 122.134-125.654 145.25-139.917 6.617-5.448 14.2-10.15 21.359-14.945 7.55-9.426 100.916-71.345 118.775-82.881 115.291-74.492 236.7-134.413 370.1-169.364 42.874-11.23 78.45-18.735 125.608-23.748 47.541-5.055 109.833-5.51 158.7-9.754 2.291-1.668 4.583-3.337 6.866-5.005"/><path fill="#ee0b01" d="M1894.55 305.697c6.616-5.448 14.2-10.15 21.358-14.945l3.708 3.796c-1.708 11.368-11.85 23.448-23.642 24.253 1.917-5.85 4.709-8.438-1.425-13.104"/><path fill="#ee0b01" d="M1546.641 4819.723c12.217-16.983 20.975-63.483 31.65-86.35 32.908-70.483 89.617-123.817 149.942-171.116 13.241-10.35 34.041-25.375 49.55-31.342-76.667 92.641-118.617 185.675-108.859 309.133 1.125 14.317 3.975 20.833 15.25 29.342a3808 3808 0 0 1-137.533-49.667"/><path fill="#ee0b01" d="m1664.441 137.698.925 4.059c-160.2 160.162-286.075 324.556-386.733 525.874-3.292 6.584-9.1 13.79-15.6 17.497l-4.6-1.145c-11.3-23.565 30.825-94.5 41.858-116.04 54.325-106.12 118.942-201.07 192.4-294.491 9-11.537 74.25-91.445 74.2-94.54l-9.933-1.735c15.116-5.876 27.491-10.159 42.966-15.014 9.934-6.026 52.184-20.367 64.517-24.465"/><path fill="#fe251c" d="M1556.958 177.177c15.116-5.876 27.491-10.159 42.966-15.014-6.966 7.755-113.483 134.72-107.041 131.336.558-8.63 1.483-11.65-.192-20.047 9-11.537 74.25-91.445 74.2-94.54z"/><path fill="#f98564" d="M4279.482 1929.174c8.266 23.984-24.342 55.042-39.525 71.425 6.75 30.475 12.608 68.059-.184 97.858l-3.466.892-2.825-2.783c-17.25-56.033-19.475-85.175-76.325-113.575 44.008-22.567 76.275-35.867 122.325-53.817"/><path fill="#f98564" d="M4228.573 2108.632c-11.616-5.341-23.183-10.791-34.816-16.1-30.617-13.983-63.492-18.991-95.442-29.574l-1.433-4.042c11.85-19.308 57.625-20.767 77.483-15.492 29.308 7.792 41.958 29.959 55.542 54.208.625 7.984 1.75 4.659-1.334 11"/><path fill="#211919" d="M675.166 4216.865c-.11-5.158-1.791-7.458-1.41-14.417 5.944-5.033 13.064-3.641 22.363-4.141-2.448 10.566-4.613 22.25-8.842 32.1z"/><path fill="#d29a41" d="m2414.982 1780.458 2.792-1.8c19.625-12.867 49.492-42.584 67.342-46.875 7.008 8.508 12.3 63.733 16.058 78.933 5.192 20.967 11.183 40.542 17.783 61.042 64.509 200.466 210.742 365.816 395.284 465.166 42.566 22.917 64.383 36.792 111.366 54.842.083 184.05-7.225 371.158-9.725 555.9-1.542 188.1-.367 376.216 3.517 564.283a8474 8474 0 0 0 9.683 272.974c1.783 38.809 2.542 92.034 6.3 129.75-66.217-64.508-125.333-146.141-188.541-213.991-51.684-55.475-102.067-114.808-154.05-169.417a6118 6118 0 0 0-450.65-425.025c-48.492-41.316-115.8-103.416-168.117-137.675 8.375-149.9 16.533-276.374.984-427.458a2202 2202 0 0 0-19.217-141.05c-4.542-26.708-14.417-74.8-15.575-99.75 16.283-19.841 34.4-41.466 48.691-62.591 46.75 188.975 83.142 366.65 77.175 562.008-1.3 42.475 2.425 87.367-.616 129.733 32.083 27.55 67.758 51.758 100.508 78.817 173.317 143.225 338.658 293.975 494.533 456.116 18.317 19.05 43.909 55.3 61.8 70.617-18.7-33.633-40.758-64.15-60.975-96.725-94.833-152.8-205.533-294.85-307.783-442.592-25.575-36.941-58.808-70.158-84.3-107.1-3.95-88.633-2.325-191.274-2.233-280.95.091-82.091-2.167-181.616 1.441-262.658 17.475 12.117 25.592 24.35 40.375 38.409 30.209 28.733 59.942 61.358 96.25 81.833-76.316-98.842-139.433-322.825-169.716-444.083 19.591 24.267 34.025 48.658 52.491 72.066 34.184 43.342 84.775 97.117 126.875 133.217 67.4 57.8 147.284 107.55 219.1 157.958 19.817 13.909 95.559 82.392 115.517 101.867a9598 9598 0 0 0 23.917 421.292c8.341 98.141 20.6 199.191 26.066 297.366l9.4-14.292c-.083-243.775 7.292-485.5 10.308-729.108-115.491-39.95-217.55-110.083-293.633-206.808-105.933-134.658-188.558-301.7-210.425-474.241"/><path fill="#37150e" d="m2899.332 3204.907 9.4-14.292c.342 12.85 3.409 85.959-.6 93.092-7.533-13.092-7.791-60.7-8.8-78.8"/><path fill="#d29a41" d="M1982.75 2143.924c-60.742 70.592-124.992 122.683-223.959 88.783-49.933-18.291-98.383-68.116-118.55-116.875-55.283-133.641-15.667-314.341 123.217-376.258-6.884 7.525-10.567 8.592-11.042 16.45 19.9 4.659 76.692-16.75 99.133 18.834 8.525 13.508 9.85 42.491 12.967 59.166-93.417-30.225-165.358 12.017-184.067 109.2-8.816 45.784-2.725 84.509 8.375 129.292 9.375-48.725 12.942-74.833 50.942-115.242 5.1-5.416 7.833-7.116 14.033-7.258 6.9 20.283 1.042 66.65 14.725 102.267 21.084 54.866 35.542 63.108 86.834 91.233 6.25 3.425 17.408 15.458 24.825 17.966 34.866 11.809 72.325-4.825 102.566-17.558"/><path fill="#ee0b01" d="M1744.224 3290.149c12.034-22.675 29.85-60.359 47.775-77.025l4.742-1.042c6.55 13.358-21.308 79.642-28.025 96.242-5.783 18.5-20.367 50.058-28.608 67.891-52.684 114.017-127.059 202.234-221.342 284.15a1001 1001 0 0 1-72.317 56.984c-16.583 11.775-185.316 119.716-192.3 119.224-.2-7.208 68.459-72.825 79.492-84.325 102.125-106.416 208.717-208.183 304.358-320.641 39.809-46.808 71-91.583 106.225-141.458"/><path fill="#dcb46d" d="M1763.458 1739.574c48.933-20.741 92.191-25.241 142.9-5.675 67.3 25.975 130.041 108.817 132.216 182.009 4.417 21.1 6.884 138.425-27.491 148.3-14.267 4.1-61.5-13.759-76.417-22.342 16.967-69.75 2.8-137.192-45.158-190.642-8.584-7.466-15.409-11.283-24.992-17.2-3.117-16.675-4.442-45.658-12.967-59.166-22.441-35.584-79.233-14.175-99.133-18.834.475-7.858 4.158-8.925 11.042-16.45"/><path fill="#d29a41" d="M1889.508 1851.224c65.1-11.833 74.416 44.892 71.808 94.167 28.175.1 47.992.192 76.183 3.233.1-9.708-.2-23.433 1.075-32.716 4.417 21.1 6.884 138.425-27.491 148.3-14.267 4.1-61.5-13.759-76.417-22.342 16.967-69.75 2.8-137.192-45.158-190.642"/></svg>