<?xml version="1.0" encoding="utf-8" ?><svg xmlns="http://www.w3.org/2000/svg" xmlns:xlink="http://www.w3.org/1999/xlink" width="1000" height="1000" viewBox="0 0 1000 1000"><defs><linearGradient id="gradient_0" gradientUnits="userSpaceOnUse" x1="293.75891" y1="541.52075" x2="112.42916" y2="338.3649"><stop offset="0" stop-color="#DD6500"/><stop offset="1" stop-color="#FF9024"/></linearGradient></defs><path fill="url(#gradient_0)" d="M182.239 537.847C180.598 521.597 177.697 516.379 180.35 498.37C185.297 464.786 211.455 452.282 208.831 415.918C206.793 387.663 193.019 380.953 180.681 359.616C174.785 349.309 171.364 337.772 170.688 325.917C169.533 308.092 176.599 287.897 187.06 273.679C190.231 269.369 194.229 264.892 197.765 260.826C198.889 261.44 199.727 261.974 200.968 262.326C198.635 267.858 195.277 275.824 194.269 281.663C189.9 306.978 195.712 327.54 211.037 347.904C223.504 364.469 234.474 375.042 237.861 395.925C239.096 403.808 238.944 411.846 237.411 419.676C236.498 424.342 235.224 428.698 234.728 433.456L234.659 434.159C255.77 410.285 263.629 380.142 251.105 349.972C249.586 346.313 249.002 343.805 246.305 340.643L246.764 340.242C251.018 341.235 262.021 357.491 264.452 361.5C271.256 372.796 274.397 385.295 275.084 398.274C276.831 431.294 261.061 456.111 238.302 478.364C222.376 493.935 208.629 516.344 203.335 537.987C199.807 552.41 200.796 569.558 201.556 584.382C202.005 591.315 207.144 613.812 210.803 619.596L210.429 619.834C208.365 618.351 206.508 615.015 204.662 612.77C202.356 610.002 199.919 607.345 197.359 604.808C188.69 596.113 179.255 587.655 171.105 578.506C130.395 532.807 126.59 473.642 161.59 423.643C158.373 430.947 155.738 443.542 154.825 451.743C152.378 473.703 155.527 495.912 166.47 515.342C171.525 524.319 176.004 529.884 182.239 537.847Z"/><path fill="#ED770D" d="M269.577 500.807C269.661 501.025 269.745 501.243 269.83 501.461C274.16 522.231 270.967 545.577 258.715 563.127C252.329 572.274 246.344 577.936 241.342 587.661C238.608 592.977 237.044 597.741 235.607 603.387C234.894 606.243 235.33 609.093 234.234 611.117C229.608 587.422 229.945 567.576 244.514 546.713C249.758 539.204 255.895 533.515 260.559 525.289C266.091 515.531 266.977 510.934 269.577 500.807Z"/><path fill="#ED770D" d="M241.43 179.478C242.868 180.119 245.103 181.817 246.156 182.945C260.228 198.025 263.751 214.117 256.993 233.631C253.578 243.49 249.138 253.706 249.073 264.055L249.072 264.771L249.011 272.867C246.328 264.367 243.102 255.503 243.322 246.37C243.951 220.302 255.26 205.494 241.43 179.478Z"/><path fill="#ED770D" fill-opacity="0.98823529" d="M197.765 260.826C201.663 257.771 203.684 255.967 207.154 252.476C206.233 254.082 201.936 261.345 200.968 262.326C199.727 261.974 198.889 261.44 197.765 260.826Z"/><path d="M551.408 0L551.638 0C553.603 1.18652 568.818 1.50448 572.502 1.73374C584.221 2.46308 598.12 6.48053 609.258 6.99177C608.606 7.90206 604.849 13.2545 604.349 13.7253C585.915 46.8346 573.169 75.0329 565.972 112.815C565.098 117.403 562.907 127.387 563.079 131.547L562.811 132.5C557.403 133.537 537.297 138.129 533.653 141.101C537.385 141.118 545.734 141.864 548.487 141.731C564.052 142.974 573.153 144.554 588.023 148.264C572.804 171.139 566.409 213.687 563.447 240.195C582.912 233.69 607.062 233.306 625.565 242.768C637.461 248.853 649.834 258.399 657.656 269.285C661.421 271.221 665.91 273.367 669.51 275.258C672.959 279.55 676.338 282.946 679.81 287.467C689.794 300.47 697.508 314.327 704.767 328.974C702.319 326.799 699.21 324.196 697.108 321.783L697.984 324.874C699.399 327.454 700.491 330.011 701.844 332.581C703.55 334.683 706.748 338.686 707.956 340.884C711.036 346.488 717.837 365.696 718.52 371.639C719.397 374.037 719.74 375.628 720.31 378.088C720.503 378.976 721.066 381.299 721.077 382.071C722.076 386.582 723.264 395.364 723.441 400.071L723.251 399.679C720.628 394.148 720.09 389.019 715.129 384.684C719.539 397.876 723.748 410.527 717.387 424.315C716.573 426.079 714.452 429.586 714.172 431.274C713.321 437.463 710.011 438.014 709.72 439.87C708.698 446.397 711.466 445.586 708.329 453.124C709.646 456.295 701.479 465.89 700.734 469.76C703.385 474.736 706.759 478.789 709.877 483.452C712.28 488.004 714.435 494.545 716.589 499.526C719.804 504.745 722.879 510.116 726.053 515.378C728.348 519.182 731.994 523.886 733.785 527.76C732.887 535.566 731.293 543.478 729.962 551.227C724.227 584.603 720.237 618.082 717.523 651.84C716.758 661.362 716.109 671.122 715.08 680.618C715.1 683.461 715.211 685.771 714.763 688.595L713.984 688.753L713.622 688.508C698.52 677.315 691.017 661.646 686.566 643.572C685.06 637.456 684.535 630.776 683.101 624.916C664.537 625.643 663.479 625.361 645.048 620.679C641.202 674.923 642.308 727.183 711.279 727.072C723.992 724.291 745.805 719.87 758.523 723.688C759.727 723.897 762.418 724.02 763.746 724.122C758.499 728.664 750.554 735.35 746.073 740.378C713.484 776.934 679.266 812.059 634.833 834.105C620.619 841.158 605.987 847.312 591.939 854.684C566.668 867.884 543.979 885.4 523.879 905.559C518.519 910.941 500.678 930.305 496.801 936.539C491.365 930.667 486.05 922.961 480.552 917.166C463.325 899.01 447.952 883.615 427.338 869.317C408.243 855.736 386.854 846.122 366.035 835.598C314.923 809.762 267.715 773.904 235.77 725.763C233.796 722.79 231.122 720.823 229.326 717.462C226.213 711.966 224.496 702.439 224.519 696.289C224.723 640.576 270.01 614.507 313.749 592.632C325.795 586.608 355.873 567.452 365.051 557.319C363 557.482 346.317 569.66 342.425 571.938C316.189 587.299 292.079 591.023 261.923 592.033C283.529 583.26 310.886 555.65 321.383 534.644C332.13 512.722 334.369 487.593 327.666 464.116C324.407 452.427 319.364 440.514 315.426 428.827C313.802 426.284 312.304 422.969 311.22 420.179C291.314 368.964 284.388 312.318 290.764 257.766C291.71 249.676 293.526 241.213 294.015 233.105L294.061 232.284C303.383 233.894 310.586 234.816 319.987 235.121C316.08 232.151 300.992 222.846 296.543 221.426C299.708 209.984 302.339 198.605 305.998 187.19C309.755 175.468 314.156 164.422 318.354 152.913L349.51 171.128C355.047 174.405 360.893 178.261 366.381 181.29C359.293 173.142 350.721 164.633 343.441 156.354C338.755 151.027 330.898 142.067 325.964 137.696C329.681 132.501 335.096 121.466 339.286 115.069C356.96 88.0803 373.535 69.3113 399.211 49.9693C403.869 57.6971 431.227 110.432 433.903 112.129C434.617 109.205 416.333 47.7454 414.083 40.4378C432.228 28.5825 451.922 19.2873 472.607 12.8152C480.652 10.3409 488.903 8.53846 497.038 6.22545C497.176 10.9491 498.303 17.4055 499.005 22.2295L502.935 48.837C504.371 58.4275 506.172 75.8717 508.584 84.5013C509.045 81.7562 508.762 78.8592 508.931 76.0509C510.375 52.0992 510.832 27.924 511.085 3.96403C512.54 3.91116 518.991 3.38506 520.029 3.06648C525.449 1.403 548.212 1.77089 551.408 0Z"/><defs><linearGradient id="gradient_1" gradientUnits="userSpaceOnUse" x1="510.72058" y1="290.6908" x2="364.88275" y2="73.835518"><stop offset="0" stop-color="#C65E06"/><stop offset="1" stop-color="#F87E10"/></linearGradient></defs><path fill="url(#gradient_1)" d="M551.408 0L551.638 0C553.603 1.18652 568.818 1.50448 572.502 1.73374C584.221 2.46308 598.12 6.48053 609.258 6.99177C608.606 7.90206 604.849 13.2545 604.349 13.7253C585.915 46.8346 573.169 75.0329 565.972 112.815C565.098 117.403 562.907 127.387 563.079 131.547C558.936 129.227 554.276 128.335 549.671 127.384C539.912 126.157 533.145 125.744 523.3 125.521C522.385 118.953 521.609 112.366 520.971 105.766C520.595 101.543 520.372 95.2971 519.709 91.3896C517.949 102.518 515.312 115.021 513.85 125.862C510.573 126.212 506.826 126.528 503.617 127.083C500.178 112.812 497.363 96.5715 494.878 82.0542C494.196 96.4734 492.116 115.71 492.192 129.563C432.826 142.702 377.149 184.788 344.568 235.6C315.3 281.244 306.032 333.38 310.197 386.863C310.88 395.627 311.711 403.133 313.135 411.84C313.738 415.526 315.439 425.506 315.426 428.827C313.802 426.284 312.304 422.969 311.22 420.179C291.314 368.964 284.388 312.318 290.764 257.766C291.71 249.676 293.526 241.213 294.015 233.105L294.061 232.284C303.383 233.894 310.586 234.816 319.987 235.121C316.08 232.151 300.992 222.846 296.543 221.426C299.708 209.984 302.339 198.605 305.998 187.19C309.755 175.468 314.156 164.422 318.354 152.913L349.51 171.128C355.047 174.405 360.893 178.261 366.381 181.29C359.293 173.142 350.721 164.633 343.441 156.354C338.755 151.027 330.898 142.067 325.964 137.696C329.681 132.501 335.096 121.466 339.286 115.069C356.96 88.0803 373.535 69.3113 399.211 49.9693C403.869 57.6971 431.227 110.432 433.903 112.129C434.617 109.205 416.333 47.7454 414.083 40.4378C432.228 28.5825 451.922 19.2873 472.607 12.8152C480.652 10.3409 488.903 8.53846 497.038 6.22545C497.176 10.9491 498.303 17.4055 499.005 22.2295L502.935 48.837C504.371 58.4275 506.172 75.8717 508.584 84.5013C509.045 81.7562 508.762 78.8592 508.931 76.0509C510.375 52.0992 510.832 27.924 511.085 3.96403C512.54 3.91116 518.991 3.38506 520.029 3.06648C525.449 1.403 548.212 1.77089 551.408 0Z"/><path fill="#FD9839" d="M549.671 127.384C549.768 120.939 551.483 111.357 552.931 104.873C559.516 75.2533 570.662 45.8148 591.977 23.547C594.369 21.048 601.114 12.9302 604.349 13.7253C585.915 46.8346 573.169 75.0329 565.972 112.815C565.098 117.403 562.907 127.387 563.079 131.547C558.936 129.227 554.276 128.335 549.671 127.384Z"/><path fill="#CF6406" d="M486.96 237.112C501.052 233.627 516.735 232.489 530.977 235.935C536.151 237.187 540.398 239.031 545.343 240.724C546.8 240.345 547.209 240.173 548.705 240.36C554.686 241.105 557.595 241.311 563.447 240.195C582.912 233.69 607.062 233.306 625.565 242.768C637.461 248.853 649.834 258.399 657.656 269.285C653.842 269.536 650.611 269.764 646.835 270.297C641.778 271.104 636.48 271.859 631.463 272.785C621.355 275.145 611.334 277.865 601.419 280.941C543.987 300.162 508.643 323.965 462.02 361.372C449.341 362.836 443.94 365.789 432.525 371.511C445.809 350.528 456.986 338.432 477.742 324.323C436.691 321.674 409.03 332.693 380.108 361.864C392.928 339.967 396.311 331.343 415.177 312.537C361.889 346.945 340.236 397.927 347.446 460.617C349.026 474.353 352.489 487.786 354.155 501.211C359.441 495.77 364.427 490.802 369.617 485.201C374.725 479.69 379.963 473.451 385.142 468.151C375.674 489.23 356.475 520.626 339.567 536.169C343.018 534.657 349.652 529.59 352.924 527.322C366.953 517.598 379.439 506.908 391.257 494.592C395.63 490.035 399.49 485.095 403.711 480.786C388.375 519.299 351.344 542.516 315.113 558.423C324.284 548.833 338.681 525.829 343.449 513.266C344.861 509.546 341.459 486.545 340.454 481.5C328.713 422.58 338.757 363.823 374.893 315.05C397.673 283.18 446.714 243.628 486.96 237.112Z"/><path fill="#FD9839" d="M486.96 237.112C501.052 233.627 516.735 232.489 530.977 235.935C536.151 237.187 540.398 239.031 545.343 240.724C546.8 240.345 547.209 240.173 548.705 240.36C554.686 241.105 557.595 241.311 563.447 240.195C582.912 233.69 607.062 233.306 625.565 242.768C637.461 248.853 649.834 258.399 657.656 269.285C653.842 269.536 650.611 269.764 646.835 270.297C641.778 271.104 636.48 271.859 631.463 272.785C621.355 275.145 611.334 277.865 601.419 280.941C585.824 267.355 567.18 258.534 546.757 255.034C465.183 241.053 378.779 301.875 350.246 376.754C347.103 385.001 343.921 393.235 342.404 401.831C341.33 394.916 352.338 363.321 355.644 356.105C379.067 304.984 420.211 264.218 472.836 243.873C477.458 242.086 483.838 240.944 486.96 237.112Z"/><path fill="#CF6406" d="M597.252 243.142C615.751 242.439 625.783 253.304 639.662 264.121C641.641 265.664 644.734 269.659 646.835 270.297C641.778 271.104 636.48 271.859 631.463 272.785C624.889 262.941 614.697 253.868 604.557 247.871C602.042 246.382 599.649 244.819 597.252 243.142Z"/><defs><linearGradient id="gradient_2" gradientUnits="userSpaceOnUse" x1="599.83026" y1="600.91888" x2="637.4928" y2="438.35355"><stop offset="0" stop-color="#CE5E00"/><stop offset="1" stop-color="#FF9629"/></linearGradient></defs><path fill="url(#gradient_2)" d="M525.991 435.486C539.719 422.314 562.214 431.531 576.739 438.253C598.909 449.969 601.506 451.362 625.713 452.4C627.787 451.463 636.26 450.619 638.74 450.347L639.772 451.274C639.476 454.003 635.321 456.294 633.307 458.212C638.585 457.038 648.488 449.072 654.159 446.511L654.811 446.098C660.049 444.528 661.106 443.737 664.701 448.607L664.56 450.305C670.03 451.621 678.553 445.166 684.889 450.863C685.848 451.725 688.232 451.673 689.709 452.798L689.885 453.28C690.89 455.988 691.159 457.253 693.58 458.61C695.867 462.001 698.883 466.211 700.734 469.76C703.385 474.736 706.759 478.789 709.877 483.452C707.964 485.565 706.01 486.503 703.434 487.706C688.513 480.643 686.663 482.434 671.93 489.593C667.749 490.041 661.683 493.179 658.046 491.782C656.806 490.639 656.899 490.675 656.168 489.131C655.496 490.085 655.556 489.956 655.045 491.028C653.891 499.847 656.507 502.592 664.976 505.721C667.552 505.892 675.256 510.615 679.62 512.274C681.01 517.579 682.672 518.751 685.962 523.016L691.337 522.04C691.192 518.559 691.116 516.516 691.421 513.064C701.199 506.09 704.607 501.372 709.765 490.4C710.663 496.247 712.465 506.899 711.973 512.573C709.82 537.368 698.914 562.49 693.068 586.766C692.123 598.156 695.165 613.474 682.102 618.978C671.463 623.283 601.04 598.062 589.61 589.065C585.817 586.08 581.377 580.775 578.609 576.723C578.039 544.422 578.071 512.112 578.703 479.812C573.838 477.909 569.271 476.11 564.779 473.428C561.42 472.457 553.922 467.283 550.983 465.069C548.761 463.811 543.54 459.123 541.316 457.193C533.381 449.923 530.58 445.352 525.991 435.486Z"/><path fill="#FD9839" d="M525.991 435.486C539.719 422.314 562.214 431.531 576.739 438.253C598.909 449.969 601.506 451.362 625.713 452.4C622.979 454.116 621.173 452.561 618.088 454.191L618.071 454.669L618.897 455.525C608.563 469.417 602.585 462.773 589.285 460.5C583.947 459.587 576.61 460.23 570.872 459.445C560.744 458.06 562.814 453.722 556.306 448.973C552.824 448.942 550.746 449.052 547.742 451.126C545.8 452.465 542.313 455.123 541.316 457.193C533.381 449.923 530.58 445.352 525.991 435.486Z"/><path fill="#ED770D" d="M668.082 571.804C674.668 572.448 681.401 573.205 686.229 578.006C687.965 581.013 689.974 584.872 692.874 586.515C692.938 586.599 693.003 586.683 693.068 586.766C692.123 598.156 695.165 613.474 682.102 618.978L681.862 618.085C696.255 595.597 661.604 586.322 645.901 581.744C657.301 573.738 655.96 575.679 668.082 571.804Z"/><path d="M649.02 556.22C670.814 555.193 672.502 555.065 692.964 562.08C688.895 567.863 685.685 570.907 686.229 578.006C681.401 573.205 674.668 572.448 668.082 571.804C657.861 568.21 655.071 564.922 649.02 556.22Z"/><path fill="#FD9839" d="M633.307 458.212C638.585 457.038 648.488 449.072 654.159 446.511C649.539 451.36 653.487 452.556 655.347 458.248C654.3 461.426 651.305 467.259 647.275 465.785L647.412 465.145L649.346 463.917L643.729 461.743L643.263 462.006C643.509 463.901 644.007 464.648 643.183 465.778C641.543 465.13 641.31 464.861 639.979 463.787C640.059 462.593 640.089 462.693 640.409 461.519C639.102 458.889 635.725 458.468 633.085 459.172L632.819 458.592L633.307 458.212Z"/><path fill="#FD9839" d="M550.983 465.069C552.71 464.563 553.226 465.332 553.765 465.197C555.91 464.656 555.535 462.117 558.862 463.405C561.606 464.467 561.998 468.649 562.196 470.847C563.99 472.917 564.522 471.745 564.779 473.428C561.42 472.457 553.922 467.283 550.983 465.069Z"/><path d="M673.745 522.55C679.833 522.279 681.796 524.143 686.619 527.696C687.884 527.609 691.632 527.31 692.634 527.572C702.02 530.031 697.199 553.296 696.065 558.504C693.629 553.295 692.198 549.375 688.173 545.157C681.99 544.686 677.263 542.451 671.41 540.368C656.855 540.473 644.814 545.366 632.282 543.839C644.075 536.17 660.014 525.665 673.745 522.55Z"/><path fill="#FD9839" d="M452.793 392.814C454.621 390.315 457.518 387.401 459.729 385.14C508.151 335.62 571.379 297.964 639.154 282.588C649.356 280.273 659.412 277.768 669.51 275.258C672.959 279.55 676.338 282.946 679.81 287.467C689.794 300.47 697.508 314.327 704.767 328.974C702.319 326.799 699.21 324.196 697.108 321.783L697.984 324.874C699.399 327.454 700.491 330.011 701.844 332.581C703.55 334.683 706.748 338.686 707.956 340.884C711.036 346.488 717.837 365.696 718.52 371.639C719.397 374.037 719.74 375.628 720.31 378.088C720.503 378.976 721.066 381.299 721.077 382.071C722.076 386.582 723.264 395.364 723.441 400.071L723.251 399.679C720.628 394.148 720.09 389.019 715.129 384.684C713.655 383.17 713.669 383.203 712.687 381.339C705.947 373.3 697.756 366.6 688.539 361.588C648.11 339.292 601.718 340.869 559.172 354.927C553.213 356.896 547.113 359.42 541.144 361.143C533.906 365.029 525.259 368.425 517.676 372.342C495.245 383.721 474.3 397.818 455.312 414.313C451.55 408.444 449.862 406.199 444.069 402.043C444.56 400.674 444.776 400.729 445.992 399.826C448.124 397.495 450.418 394.827 452.793 392.814Z"/><path fill="#CF6406" d="M552.241 326.404C553.438 325.974 559.681 322.618 561.159 321.851C566.557 318.996 572.035 316.295 577.588 313.754C603.072 302.188 622.729 296.251 650.032 291.738C641.509 296.092 623.65 301.646 613.608 305.759C617.929 314.912 620.656 320.497 622.867 330.572C602.708 331.783 576.635 337.15 558.22 345.856C563.345 344.619 578.101 340.41 582.126 340.161C574.344 346.82 553.816 351.329 544.525 357.502C542.68 358.727 540.698 359.822 538.559 360.42L537.965 361.226C538.917 361.651 539.762 361.111 541.144 361.143C533.906 365.029 525.259 368.425 517.676 372.342C495.245 383.721 474.3 397.818 455.312 414.313C451.55 408.444 449.862 406.199 444.069 402.043C444.56 400.674 444.776 400.729 445.992 399.826C448.124 397.495 450.418 394.827 452.793 392.814C454.084 393.3 453.406 393.15 455.029 392.738C455.103 392.643 455.176 392.547 455.25 392.452C469.244 379.961 538.545 327.912 552.241 326.404Z"/><path d="M552.241 326.404C553.438 325.974 559.681 322.618 561.159 321.851C566.557 318.996 572.035 316.295 577.588 313.754C603.072 302.188 622.729 296.251 650.032 291.738C641.509 296.092 623.65 301.646 613.608 305.759C568.146 322.501 525.217 345.446 486.039 373.944L485.361 373.106C495.001 365.123 507.017 355.917 517.185 348.738C528.237 340.936 540.949 333.895 552.241 326.404Z"/><path fill="#ED770D" d="M452.793 392.814C454.084 393.3 453.406 393.15 455.029 392.738C452.949 394.668 448.377 399.614 445.992 399.826C448.124 397.495 450.418 394.827 452.793 392.814Z"/><path fill="#511903" d="M485.361 373.106L486.039 373.944C484.201 375.401 480.699 378.008 479.104 379.508L478.276 378.843L485.361 373.106Z"/><path fill="#8D3906" d="M478.276 378.843L479.104 379.508C478.058 380.494 477.487 381.304 476.101 381.447C476.302 380.169 477.028 379.965 478.276 378.843Z"/><path fill="#CF6406" d="M687.852 317.068C688.633 316.594 689.39 315.872 689.948 316.134C693.162 317.641 695.033 322.402 697.984 324.874C699.399 327.454 700.491 330.011 701.844 332.581C703.55 334.683 706.748 338.686 707.956 340.884C711.036 346.488 717.837 365.696 718.52 371.639C719.397 374.037 719.74 375.628 720.31 378.088C719.476 377.474 712.208 369.974 710.926 368.664C705.246 362.859 701.861 360.492 695.314 356.058C694.332 348.07 692.975 340.873 691.293 332.997C690.158 327.682 689.575 322.237 687.852 317.068Z"/><path fill="#FD9839" d="M701.844 332.581C703.55 334.683 706.748 338.686 707.956 340.884C711.036 346.488 717.837 365.696 718.52 371.639C716.28 370.473 709.237 360.841 708.808 358.632C707.791 353.39 700.244 336.684 701.844 332.581Z"/><path fill="#CF6406" d="M653.94 291.9C659.12 288.486 660.738 287.93 666.412 285.601C673.525 307.16 678.817 328.975 684.641 350.882C681.317 349.067 678.728 347.991 675.501 346.375C675.61 343.724 659.728 303.598 657.493 301.936C656.111 298.71 655.041 295.243 653.94 291.9Z"/><path d="M657.493 301.936C659.728 303.598 675.61 343.724 675.501 346.375C670.535 343.778 664.705 342.142 659.341 340.608C634.399 333.471 607.436 335.482 582.126 340.161C578.101 340.41 563.345 344.619 558.22 345.856C576.635 337.15 602.708 331.783 622.867 330.572C639.605 330.624 651.161 332.845 666.912 338.135C663.597 328.556 660.286 312.366 657.493 301.936Z"/><path fill="#CF6406" d="M687.852 317.068C686.043 312.408 684.798 307.567 683.457 302.751C686.981 308.253 690.279 313.258 694.78 318.032C695.425 318.717 696.362 320.774 697.108 321.783L697.984 324.874C695.033 322.402 693.162 317.641 689.948 316.134C689.39 315.872 688.633 316.594 687.852 317.068Z"/><path fill="#ED770D" d="M712.687 381.339C716.006 381.957 718.911 388.964 720.926 389.764C722.024 386.303 719.956 386.145 721.077 382.071C722.076 386.582 723.264 395.364 723.441 400.071L723.251 399.679C720.628 394.148 720.09 389.019 715.129 384.684C713.655 383.17 713.669 383.203 712.687 381.339Z"/><path d="M522.421 418.937C537.024 395.016 553.46 382.47 580.124 373.24C579.279 376.081 575.691 379.49 573.453 381.518C569.2 385.369 557.43 397.371 557.594 403.661C571.496 393.727 593.926 383.1 611.449 386.148C627.963 389.02 650.931 400.225 664.691 410.164C665.069 408.639 664.981 407.867 665.907 406.883C666.167 410.455 665.628 413.562 665.824 417.314C664.997 417.985 663.193 419.522 662.389 420.035C662.12 425.792 666.871 439.172 668.48 445.896L659.701 443.253C657.496 444.301 656.666 444.589 654.811 446.098L654.159 446.511C648.488 449.072 638.585 457.038 633.307 458.212C635.321 456.294 639.476 454.003 639.772 451.274L638.74 450.347C636.26 450.619 627.787 451.463 625.713 452.4C601.506 451.362 598.909 449.969 576.739 438.253C562.214 431.531 539.719 422.314 525.991 435.486C523.371 429.393 523.22 425.419 522.421 418.937Z"/><path fill="#CF6406" d="M522.421 418.937C537.024 395.016 553.46 382.47 580.124 373.24C579.279 376.081 575.691 379.49 573.453 381.518C569.2 385.369 557.43 397.371 557.594 403.661L556.195 405.18L556.468 405.533C567.373 401.532 577.254 398.536 588.822 397.026C603.824 395.068 612.951 400.167 624.887 408.769C612.758 407.947 601.835 409.962 590.506 414.217C574.807 420.114 572.068 426.07 555.043 421.717C564.291 428.098 570.713 431.521 581.134 435.137L576.739 438.253C562.214 431.531 539.719 422.314 525.991 435.486C523.371 429.393 523.22 425.419 522.421 418.937Z"/><path fill="#BD5A05" d="M592.363 433.842C601.945 432.442 632.189 426.906 625.857 446.219C629.509 447.419 636.16 448.781 638.74 450.347C636.26 450.619 627.787 451.463 625.713 452.4C601.506 451.362 598.909 449.969 576.739 438.253L581.134 435.137C591.555 443.29 604.909 445.203 617.568 446.976C608.086 443.329 600.423 440.417 592.363 433.842Z"/><path fill="#BD5A05" d="M657.86 421.86C659.32 421.385 660.951 420.644 662.389 420.035C662.12 425.792 666.871 439.172 668.48 445.896L659.701 443.253C657.496 444.301 656.666 444.589 654.811 446.098L654.159 446.511C648.488 449.072 638.585 457.038 633.307 458.212C635.321 456.294 639.476 454.003 639.772 451.274L638.74 450.347C639.213 449.103 636.04 438.828 635.452 436.442C640.652 439.504 642.42 440.222 645.992 445.112C650.492 437.055 654.257 430.384 657.86 421.86Z"/><path fill="#CF6406" d="M606.827 415.162C607.233 415.116 607.639 415.074 608.045 415.035C616.832 414.199 623.172 416.593 629.867 422.102C621.006 419.223 616.921 419.381 607.692 419.481C599.159 419.442 593.498 420.648 585.42 422.64L585.752 422.45C592.26 418.634 599.529 416.865 606.827 415.162Z"/><path fill="#CF6406" d="M415.557 513.945C407.431 551.156 391.784 576.26 359.508 596.959C314.118 626.069 246.681 633.635 230.691 694.102C228.517 702.322 230.252 709.836 229.326 717.462C226.213 711.966 224.496 702.439 224.519 696.289C224.723 640.576 270.01 614.507 313.749 592.632C325.795 586.608 355.873 567.452 365.051 557.319C367.581 555.048 369.576 553.325 372.267 551.26C363.922 565.197 358.839 572.17 347.238 583.621C379.143 562.972 396.507 547.373 415.557 513.945Z"/><path fill="#FD9839" d="M580.124 373.24C609.122 364.081 636.796 362.865 665.099 376.708C671.037 379.613 679.237 385.659 683.264 390.957C686.865 389.774 688.976 389.148 692.672 388.381C703.763 395.429 707.536 409.223 710.996 421.636C701.728 419.496 699.799 421.627 691.348 422.759C687.861 429 686.294 431.17 684.631 438.13C687.305 446.554 689.607 450.732 693.58 458.61C691.159 457.253 690.89 455.988 689.885 453.28L689.709 452.798C688.232 451.673 685.848 451.725 684.889 450.863C678.553 445.166 670.03 451.621 664.56 450.305L664.701 448.607C661.106 443.737 660.049 444.528 654.811 446.098C656.666 444.589 657.496 444.301 659.701 443.253L668.48 445.896C666.871 439.172 662.12 425.792 662.389 420.035C663.193 419.522 664.997 417.985 665.824 417.314C665.628 413.562 666.167 410.455 665.907 406.883C664.981 407.867 665.069 408.639 664.691 410.164C650.931 400.225 627.963 389.02 611.449 386.148C593.926 383.1 571.496 393.727 557.594 403.661C557.43 397.371 569.2 385.369 573.453 381.518C575.691 379.49 579.279 376.081 580.124 373.24Z"/><defs><linearGradient id="gradient_3" gradientUnits="userSpaceOnUse" x1="532.72803" y1="231.64821" x2="580.59393" y2="145.7325"><stop offset="0" stop-color="#FE7A0A"/><stop offset="1" stop-color="#FFA146"/></linearGradient></defs><path fill="url(#gradient_3)" d="M548.487 141.731C564.052 142.974 573.153 144.554 588.023 148.264C572.804 171.139 566.409 213.687 563.447 240.195C557.595 241.311 554.686 241.105 548.705 240.36C547.209 240.173 546.8 240.345 545.343 240.724C543.624 206.731 543.2 184.041 547.272 149.992C547.755 147.472 548.122 144.323 548.487 141.731Z"/><path fill="#CF6406" d="M711.279 727.072C723.992 724.291 745.805 719.87 758.523 723.688C719.86 735.465 674.868 775.785 646.762 804.751C641.712 809.944 636.775 815.246 631.955 820.654C629.161 823.814 624.545 829.433 621.712 832.024C642.951 788.139 665.791 749.707 711.279 727.072Z"/><path fill="#CF6406" d="M533.653 141.101C537.385 141.118 545.734 141.864 548.487 141.731C548.122 144.323 547.755 147.472 547.272 149.992C543.081 149.827 538.917 150.115 534.734 150.632C461.504 159.688 396.08 206.012 358.935 269.171C357.016 272.434 354.358 279.965 351.591 281.909L350.846 281.733C349.532 275.905 369.305 246.089 373.81 239.816C411.514 187.317 469.429 150.462 533.653 141.101Z"/><path fill="#ED770D" d="M716.589 499.526C719.804 504.745 722.879 510.116 726.053 515.378C728.348 519.182 731.994 523.886 733.785 527.76C732.887 535.566 731.293 543.478 729.962 551.227C724.227 584.603 720.237 618.082 717.523 651.84C716.758 661.362 716.109 671.122 715.08 680.618C713.719 680.298 713.741 679.692 712.664 678.171C711.715 673.231 711.992 658.624 712.076 653.33C712.749 610.499 720.017 569.481 726.771 527.449C723.597 520.972 717.429 506.525 716.589 499.526Z"/><path fill="#BD5A05" d="M706.12 434.691C708.652 433.271 711.45 432.318 714.172 431.274C713.321 437.463 710.011 438.014 709.72 439.87C708.698 446.397 711.466 445.586 708.329 453.124C707.571 448.612 705.997 444.184 703.33 440.452C704.686 439.089 706.583 437.249 706.933 435.381L706.12 434.691Z"/><path fill="#BD5A05" d="M655.045 491.028C655.556 489.956 655.496 490.085 656.168 489.131C656.899 490.675 656.806 490.639 658.046 491.782C661.683 493.179 667.749 490.041 671.93 489.593C665.901 494.383 659.38 501.847 655.045 491.028Z"/><path fill="#CF6406" d="M664.976 505.721C672.082 504.999 677.348 504.559 679.62 512.274C675.256 510.615 667.552 505.892 664.976 505.721Z"/><path fill="#ED770D" d="M706.12 434.691L706.933 435.381C706.583 437.249 704.686 439.089 703.33 440.452C701.878 439.465 700.316 438.658 698.777 437.801L706.12 434.691Z"/><path fill="#ED770D" d="M712.664 678.171C713.741 679.692 713.719 680.298 715.08 680.618C715.1 683.461 715.211 685.771 714.763 688.595L713.984 688.753L713.622 688.508C713.273 685.065 712.954 681.619 712.664 678.171Z"/><path fill="#CF6406" d="M489.872 413.875L498.301 407.082C499.54 416.479 501.302 421.025 503.749 429.992C508.246 439.7 512.556 447.759 519.569 456.052C522.381 459.377 525.334 462.058 527.975 465.099C538.109 473.877 550.708 482.532 563.332 487.27C561.406 548.857 560.238 607.588 563.966 669.397C557.373 662.185 550.888 654.63 544.563 647.166C523.272 622.039 499.818 600.554 475.732 578.241C478.03 578.371 478.583 579.635 480.592 581.242C482.869 580.377 484.503 576.284 487.464 574.296C489.011 575.616 495.887 581.376 496.635 582.626C509.807 593.322 527.451 611.172 538.405 623.929C535.679 618.073 522.626 598.976 518.639 593.398C507.827 578.272 496.247 561.031 484.34 546.817C484.157 525.03 484.172 503.241 484.387 481.454C489.887 486.946 494.104 491.383 500.446 495.923C489.193 476.091 486.183 462.63 479.745 441.118C492.97 463.192 507.759 472.227 528.216 486.414C531.979 489.023 538.14 495.124 542.028 498.272C542.565 526.367 545.169 555.873 547.848 583.942L549.437 582.387C548.939 553.191 549.992 524.815 550.583 495.642C543.418 492.75 535.48 488.941 529.311 484.304C508.497 468.658 493.542 439.118 489.872 413.875Z"/><defs><linearGradient id="gradient_4" gradientUnits="userSpaceOnUse" x1="479.9805" y1="570.58887" x2="571.05585" y2="558.92975"><stop offset="0" stop-color="#C55F00"/><stop offset="1" stop-color="#FF9E3A"/></linearGradient></defs><path fill="url(#gradient_4)" d="M525.677 471.706C524.935 468.334 519.952 466.566 518.663 462.599C519.127 460.326 518.598 461.184 519.898 459.668C523.26 459.73 523.679 463.573 527.723 465.778L527.975 465.099C538.109 473.877 550.708 482.532 563.332 487.27C561.406 548.857 560.238 607.588 563.966 669.397C557.373 662.185 550.888 654.63 544.563 647.166C523.272 622.039 499.818 600.554 475.732 578.241C478.03 578.371 478.583 579.635 480.592 581.242C482.869 580.377 484.503 576.284 487.464 574.296C489.011 575.616 495.887 581.376 496.635 582.626C496.86 583.555 497.007 584.109 497.802 584.695C501.725 587.592 497.274 589.183 499.738 593.649C501.993 594.735 504.236 593.566 506.089 592.291C508.674 595.224 511.286 596.702 513.762 599.825L513.551 600.617C511.305 602.456 512.096 604.872 509.771 606.658C519.432 615.421 527.245 623.52 536.25 632.992C543.098 640.195 549.629 646.186 555.707 654.284C553.836 638.124 553.973 619.861 553.666 603.659C553.031 566.151 553.625 528.632 555.447 491.163C542.26 484.15 537.298 482.864 525.677 471.706Z"/><path fill="#FD9839" d="M525.677 471.706C517.614 465.807 507.262 449.569 504.571 439.735C503.839 437.06 502.422 432.456 503.749 429.992C508.246 439.7 512.556 447.759 519.569 456.052C522.381 459.377 525.334 462.058 527.975 465.099L527.723 465.778C523.679 463.573 523.26 459.73 519.898 459.668C518.598 461.184 519.127 460.326 518.663 462.599C519.952 466.566 524.935 468.334 525.677 471.706Z"/><path fill="#180801" d="M547.848 583.942L549.437 582.387C549.437 587.14 549.506 592.061 549.365 596.799C548.326 593.198 547.857 587.706 547.848 583.942Z"/><path fill="#CF6406" d="M623.399 661.49C624.364 662.93 623.908 670.85 623.936 673.168C624.016 678.008 624.387 682.84 625.049 687.635C628.543 713.14 640.883 723.972 664.919 731.717C631.694 766.345 589.701 786.824 546.507 805.976C537.933 809.892 525.41 815.257 517.667 820.245C520.583 816.685 523.331 812.603 526.031 808.859C560.483 761.082 595.12 713.325 623.399 661.49Z"/><path fill="#CF6406" d="M486.41 910.762C472.337 887.268 461.192 872.414 440.329 853.7C425.036 839.326 405.856 827.523 394.173 809.74C376.355 782.619 388.596 759.383 413.381 743.524C407.399 750.593 403.196 757.207 401.159 766.496C393 803.689 433.152 822.892 454.805 845.705C468.298 859.922 474.205 868.461 484.561 884.837C508.392 860.116 545.575 845.651 577.817 835.95C578.956 836.549 580.006 837.177 581.236 837.542C546.274 857.01 512.455 880.173 486.41 910.762Z"/><path fill="#CF6406" d="M463.953 609.265C465.664 610.449 470.195 619.083 471.556 621.578C484.802 645.871 496.603 669.825 504.611 696.415C516.162 734.771 512.809 768.164 494.045 803.428C490.786 809.729 487.502 814.909 483.534 820.72C490.081 769.078 480.407 712.808 472.425 661.672C469.855 645.206 467.223 625.212 463.953 609.265Z"/><path fill="#CF6406" d="M371.637 612.332L372.006 612.881C368.646 616.6 364.941 620.327 361.398 623.905C323.013 662.663 286.525 712.214 300.846 770.509C298.576 767.316 296.715 764.253 294.665 760.913C292.016 756.084 289.588 751.48 287.618 746.374C269.559 699.561 300.156 654.857 339.66 631.368C350.264 625.063 361.307 618.945 371.637 612.332Z"/><path fill="#CF6406" d="M406.936 655.639C407.37 657.66 404.663 664.452 403.987 666.82C399.229 682.62 388.344 701.25 376.296 713.039C347.562 741.159 329.19 773.254 351.729 812.944C348.459 809.797 345.884 807.222 342.865 803.846C314.629 769.85 319.561 736.523 353.353 708.161C367.442 696.336 382.777 687.082 394.698 672.782C399.881 666.564 402.537 661.943 406.936 655.639Z"/><path fill="#CF6406" d="M444.538 476.193C446.718 473.767 448.73 471.152 450.76 468.595C453.248 481.13 456.547 492.72 458.221 505.702C460.241 521.361 459.824 536.018 459.504 551.725C468.87 557.907 478.794 566.942 487.464 574.296C484.503 576.284 482.869 580.377 480.592 581.242C478.583 579.635 478.03 578.371 475.732 578.241C466.7 571.231 458.486 563.463 449.066 556.192C449.213 548.104 450.078 539.739 450.208 531.391C450.515 511.829 448.344 495.236 444.538 476.193Z"/><path fill="#BD5A05" d="M406.248 412.313L407.017 412.696C416.016 409.385 423.002 407.529 423.423 419.655C402.055 414.575 399.107 433.803 402.752 449.668C403.686 441.764 405.017 438.668 410.716 433.172C410.238 441.063 411.469 450.605 418.681 455.452C419.875 456.255 422.042 456.219 423.302 457.399C427.887 461.697 432.735 459.621 437.673 457.363C425.777 472.273 410.331 474.31 398.773 457.238C390.43 444.915 393.041 420.512 406.248 412.313Z"/><path fill="#FD9839" d="M406.248 412.313C424.892 398.048 443.587 412.922 444.913 433.698C444.738 439.919 444.633 442.047 442.458 447.812C437.771 447.357 436.522 447.124 432.433 445.193C432.859 440.33 432.782 437.866 432.587 432.877C431.579 427.917 429.603 425.305 426.494 421.618L423.423 419.655C423.002 407.529 416.016 409.385 407.017 412.696L406.248 412.313Z"/><path fill="#BD5A05" d="M432.587 432.877C434.546 432.884 436.01 433.644 437.403 433.478L444.913 433.698C444.738 439.919 444.633 442.047 442.458 447.812C437.771 447.357 436.522 447.124 432.433 445.193C432.859 440.33 432.782 437.866 432.587 432.877Z"/><path fill="#CF6406" d="M426.494 421.618C439.918 423.343 432.246 432.053 437.403 433.478C436.01 433.644 434.546 432.884 432.587 432.877C431.579 427.917 429.603 425.305 426.494 421.618Z"/><path fill="#CF6406" d="M406.862 598.554L407.992 599.19C410.395 598.274 409.582 596.534 412.798 595.046C401.633 627.954 377.85 644.852 349.148 661.287C357.878 652.721 366.466 644.013 374.911 635.167C385.354 624.439 398.555 611.136 406.862 598.554Z"/><path fill="#CF6406" d="M428.597 235.942C454.056 215.409 492.628 197.308 525.909 201.689C491.522 208.356 455.811 221.308 426.767 241.053C426.846 238.477 428.449 239.139 428.597 235.942Z"/><path fill="#BD5A05" d="M408.318 254.781C413.021 248.223 421.753 240.163 428.597 235.942C428.449 239.139 426.846 238.477 426.767 241.053C424.639 243.337 411.247 253.267 408.318 254.781Z"/><path fill="#ED770D" d="M695.426 444.855C700.575 444.455 705.85 446.284 707.035 451.89L706.554 452.379L705.416 451.872C701.022 449.408 693.462 448.661 692.126 447.096C693.064 445.541 693.411 445.802 695.426 444.855Z"/><path fill="#BD5A05" d="M406.862 598.554C410.366 593.363 411.903 588.634 416.484 584.365C415.368 588.076 414.43 591.512 412.798 595.046C409.582 596.534 410.395 598.274 407.992 599.19L406.862 598.554Z"/><path fill="#ED770D" d="M592.555 830.879C589.274 833.598 585.048 835.494 581.236 837.542C580.006 837.177 578.956 836.549 577.817 835.95C583.132 834.477 587.407 832.826 592.555 830.879Z"/><path fill="#ED770D" d="M685.706 253.932C752.675 277.657 805.371 334.086 835.46 397.287C876.002 482.698 881.027 580.699 849.433 669.808C816.515 759.365 749.277 832.12 662.588 871.985C647.048 879.23 627.436 885.744 613.037 893.501C577.206 912.807 545.287 943.918 519.466 975C514.963 980.42 503.946 994.03 500.81 1000L500.072 1000C497.501 995.34 490.047 985.468 486.69 981.046C460.428 946.446 425.789 913.161 387.531 892.22C373.779 885.251 359.091 880.136 345.1 873.672C226.772 819.006 133.549 696.766 131.903 563.725C133.304 567.784 134.757 574.877 136.254 579.708C143.967 604.59 154.199 622.595 172.642 641.054C176.341 660.062 183.58 678.256 192.017 695.528C222.815 758.574 279.772 810.498 340.974 843.514C357.523 852.442 374.086 858.363 390.824 866.132C402.789 871.753 414.244 878.399 425.061 885.997C445.759 900.663 465.211 920.357 481.765 939.594C488.415 947.32 494.409 955.845 501.059 963.627C503.264 960.175 505.629 956.986 508.167 953.739C538.767 914.592 577.259 878.989 624.359 861.163C635.43 856.973 646.333 851.904 656.737 846.563C708.9 819.787 752.8 781.865 786.039 733.564C836.542 658.915 855.379 567.284 838.419 478.766C824.648 401.96 784.006 332.557 723.76 282.968C715.521 276.21 706.581 269.41 697.645 263.625C693.512 260.949 689.117 258.536 685.07 255.756L685.706 253.932Z"/><path fill="#FD9839" fill-opacity="0.94509804" d="M676.673 250.966C679.696 251.917 682.707 252.906 685.706 253.932L685.07 255.756C681.965 254.194 679.465 253.052 676.673 250.966Z"/></svg>